<svg width="496" height="85" viewBox="0 0 496 85" fill="none" xmlns="http://www.w3.org/2000/svg">
<path d="M7.81038 26.866C12.0116 26.8594 15.4121 23.361 15.4057 19.0521C15.3993 14.7432 11.9883 11.2554 7.78713 11.262C3.58592 11.2686 0.185379 14.767 0.191798 19.0759C0.198216 23.3849 3.60917 26.8726 7.81038 26.866Z" fill="#FA966B"/>
<path fill-rule="evenodd" clip-rule="evenodd" d="M62.4536 16.6302C53.235 16.6442 43.7843 25.7488 43.8054 39.6052L27.2293 39.6305C27.1978 18.9861 41.8552 0.0854727 62.4283 0.0540416C83.0014 0.0226105 97.7165 18.8784 97.748 39.5228L81.1719 39.5481C81.1507 25.6917 71.6722 16.6161 62.4536 16.6302Z" fill="#FA966B"/>
<path fill-rule="evenodd" clip-rule="evenodd" d="M35.6904 57.8012C26.4718 57.7872 17.0211 48.6826 17.0423 34.8262L0.466144 34.8009C0.434604 55.4452 15.092 74.3459 35.6651 74.3774C56.2382 74.4088 70.9533 55.553 70.9848 34.9086L54.4087 34.8833C54.3875 48.7397 44.909 57.8153 35.6904 57.8012Z" fill="#FA966B"/>
<path d="M164.793 58.2604H155.584V51.6032L155.917 46.6103C154.438 50.1608 152.034 53.0086 148.705 55.1537C145.45 57.2249 141.826 58.2604 137.832 58.2604C133.467 58.2604 130.028 57.1139 127.513 54.8209C124.998 52.5278 123.666 49.5321 123.519 45.8337V15.6543H132.728V41.6174C132.876 43.6146 133.578 45.3529 134.836 46.8322C136.167 48.2376 138.238 49.0143 141.049 49.1623C142.972 49.1623 144.785 48.8294 146.486 48.1637C148.261 47.498 149.815 46.5733 151.146 45.3898C152.477 44.2063 153.55 42.8009 154.364 41.1736C155.177 39.5463 155.584 37.771 155.584 35.8479V15.6543H164.793V58.2604Z" fill="#1C4651"/>
<path d="M213.535 36.4026C213.535 32.7042 212.314 29.6715 209.873 27.3044C207.506 24.8635 204.4 23.643 200.553 23.643C196.707 23.643 193.563 24.8635 191.122 27.3044C188.755 29.6715 187.572 32.7042 187.572 36.4026C187.572 40.0271 188.755 43.0968 191.122 45.6118C193.563 48.0527 196.707 49.2732 200.553 49.2732C204.4 49.2732 207.506 48.0527 209.873 45.6118C212.314 43.0968 213.535 40.0271 213.535 36.4026ZM222.855 36.4026C222.855 39.3614 222.263 42.1722 221.08 44.8351C219.97 47.498 218.417 49.828 216.419 51.8251C214.422 53.8223 212.055 55.4126 209.318 56.5961C206.582 57.7057 203.66 58.2604 200.553 58.2604C198.334 58.2604 196.337 58.0015 194.562 57.4838C192.86 56.966 191.418 56.4112 190.234 55.8195C189.051 55.1537 188.126 54.525 187.461 53.9333C186.795 53.3415 186.462 52.9347 186.462 52.7128C186.61 53.0826 186.795 53.4894 187.017 53.9333C187.239 54.3771 187.424 54.7839 187.572 55.1537V85.0002H178.362V15.6543H186.018C186.018 16.542 186.055 17.4296 186.129 18.3172C186.277 19.1309 186.388 19.9815 186.462 20.8692C186.462 20.6472 186.832 20.2034 187.572 19.5377C188.311 18.872 189.31 18.2063 190.567 17.5406C191.825 16.8009 193.304 16.1351 195.005 15.5434C196.707 14.9516 198.556 14.6558 200.553 14.6558C203.66 14.6558 206.582 15.2475 209.318 16.431C212.055 17.5405 214.422 19.0939 216.419 21.0911C218.417 23.0882 219.97 25.4182 221.08 28.0811C222.263 30.67 222.855 33.4439 222.855 36.4026Z" fill="#1C4651"/>
<path d="M241.76 36.4026C241.76 40.0271 242.944 43.0968 245.311 45.6118C247.752 48.0527 250.895 49.2732 254.742 49.2732C258.588 49.2732 261.695 48.0527 264.062 45.6118C266.503 43.0968 267.723 40.0271 267.723 36.4026C267.723 32.7042 266.503 29.6715 264.062 27.3044C261.695 24.8635 258.588 23.643 254.742 23.643C250.895 23.643 247.752 24.8635 245.311 27.3044C242.944 29.6715 241.76 32.7042 241.76 36.4026ZM232.44 36.5136C232.44 33.6288 232.995 30.855 234.104 28.1921C235.288 25.5292 236.878 23.1992 238.875 21.202C240.873 19.2049 243.24 17.6145 245.976 16.431C248.713 15.2475 251.635 14.6558 254.742 14.6558C256.739 14.6558 258.588 14.9516 260.289 15.5434C261.991 16.1351 263.47 16.8009 264.728 17.5406C265.985 18.2063 266.984 18.872 267.723 19.5377C268.463 20.2034 268.833 20.6472 268.833 20.8692C268.833 20.0555 268.907 19.2048 269.055 18.3172C269.203 17.4296 269.277 16.542 269.277 15.6543H276.932V57.2619H268.833V53.7114V52.7128C268.833 52.9347 268.5 53.3415 267.834 53.9333C267.169 54.525 266.244 55.1537 265.06 55.8195C263.877 56.4112 262.398 56.966 260.622 57.4838C258.921 58.0015 256.961 58.2604 254.742 58.2604C251.635 58.2604 248.713 57.7057 245.976 56.5961C243.24 55.4126 240.873 53.8223 238.875 51.8251C236.878 49.828 235.288 47.5349 234.104 44.946C232.995 42.2832 232.44 39.4723 232.44 36.5136Z" fill="#1C4651"/>
<path d="M314.975 20.8692C314.531 19.9815 314.087 19.1309 313.643 18.3172C313.273 17.4296 312.867 16.542 312.423 15.6543H321.632C323.777 20.3144 326.07 25.0114 328.511 29.7454C331.026 34.4055 333.097 39.1395 334.724 43.9475C336.352 39.1395 338.386 34.4055 340.827 29.7454C343.342 25.0114 345.672 20.3144 347.817 15.6543H357.026C353.254 23.0512 349.518 30.4111 345.82 37.7341C342.195 45.057 338.497 52.4169 334.724 59.8138C332.209 54.7839 329.694 49.828 327.18 44.946C324.665 39.9901 322.15 34.9972 319.635 29.9673C317.12 34.9972 314.605 39.9901 312.09 44.946C309.575 49.828 307.06 54.7839 304.545 59.8138C300.773 52.4169 297.037 45.057 293.339 37.7341C289.714 30.4111 286.016 23.0512 282.243 15.6543H291.453C293.598 20.3144 295.891 25.0114 298.332 29.7454C300.847 34.4055 302.918 39.1395 304.545 43.9475C305.876 39.9531 307.504 36.0698 309.427 32.2973C311.424 28.451 313.273 24.6416 314.975 20.8692Z" fill="#1C4651"/>
<path d="M371.68 36.4026C371.68 40.0271 372.863 43.0968 375.23 45.6118C377.671 48.0527 380.815 49.2732 384.661 49.2732C388.508 49.2732 391.614 48.0527 393.981 45.6118C396.422 43.0968 397.643 40.0271 397.643 36.4026C397.643 32.7042 396.422 29.6715 393.981 27.3044C391.614 24.8635 388.508 23.643 384.661 23.643C380.815 23.643 377.671 24.8635 375.23 27.3044C372.863 29.6715 371.68 32.7042 371.68 36.4026ZM362.36 36.5136C362.36 33.6288 362.914 30.855 364.024 28.1921C365.207 25.5292 366.798 23.1992 368.795 21.202C370.792 19.2049 373.159 17.6145 375.896 16.431C378.633 15.2475 381.555 14.6558 384.661 14.6558C386.658 14.6558 388.508 14.9516 390.209 15.5434C391.91 16.1351 393.39 16.8009 394.647 17.5406C395.904 18.2063 396.903 18.872 397.643 19.5377C398.382 20.2034 398.752 20.6472 398.752 20.8692C398.752 20.0555 398.826 19.2048 398.974 18.3172C399.122 17.4296 399.196 16.542 399.196 15.6543H406.852V57.2619H398.752V53.7114V52.7128C398.752 52.9347 398.419 53.3415 397.754 53.9333C397.088 54.525 396.163 55.1537 394.98 55.8195C393.796 56.4112 392.317 56.966 390.542 57.4838C388.84 58.0015 386.88 58.2604 384.661 58.2604C381.555 58.2604 378.633 57.7057 375.896 56.5961C373.159 55.4126 370.792 53.8223 368.795 51.8251C366.798 49.828 365.207 47.5349 364.024 44.946C362.914 42.2832 362.36 39.4723 362.36 36.5136Z" fill="#1C4651"/>
<path d="M430.348 85.0002H421.139C423.506 80.3402 425.836 75.7171 428.129 71.131C430.422 66.545 432.752 61.9219 435.119 57.2619L414.149 15.6543H423.358C426.095 21.0541 429.017 26.5648 432.123 32.1864C435.304 37.7341 437.856 43.3557 439.779 49.0513C440.741 46.2405 441.85 43.4297 443.108 40.6189C444.439 37.7341 445.844 34.9232 447.324 32.1864C448.803 29.3756 450.283 26.6017 451.762 23.8649C453.315 21.0541 454.758 18.3172 456.089 15.6543H465.298C459.455 27.2675 453.611 38.8436 447.768 50.3828C441.998 61.8479 436.192 73.3871 430.348 85.0002Z" fill="#1C4651"/>
<path d="M478.904 1.11932V2.69707H474.231V15.0994H472.573V2.69707H467.86V1.11932H478.904Z" fill="#1C4651"/>
<path d="M480.497 0.480225C481.722 2.06464 482.94 3.64905 484.151 5.23347C485.363 6.80457 486.581 8.38232 487.806 9.96674C489.031 8.38232 490.249 6.80457 491.461 5.23347C492.673 3.64905 493.891 2.06464 495.116 0.480225V15.0994H493.458V5.71279C493.471 5.60627 493.478 5.49976 493.478 5.39324C493.491 5.28673 493.505 5.18021 493.518 5.07369C492.639 6.37851 491.707 7.65003 490.722 8.88827C489.737 10.1132 488.765 11.3514 487.806 12.603C486.914 11.4313 486.022 10.2663 485.13 9.10796C484.238 7.94961 483.346 6.7846 482.454 5.61293L482.094 5.07369C482.108 5.18021 482.114 5.28673 482.114 5.39324C482.128 5.49976 482.141 5.60627 482.154 5.71279V15.0994H480.497V0.480225Z" fill="#1C4651"/>
</svg>
