<svg width="16" height="8" viewBox="0 0 16 8" fill="none" xmlns="http://www.w3.org/2000/svg">
<path d="M0.292432 0.355481C0.619931 0.103604 1.08925 0.164108 1.34223 0.490247L1.34478 0.493447C1.34816 0.497667 1.35472 0.505766 1.36448 0.517431C1.38399 0.540768 1.41624 0.578322 1.46135 0.627601C1.55162 0.726223 1.69298 0.871366 1.88633 1.04328C2.27335 1.38738 2.86585 1.83622 3.67161 2.23499C4.72929 2.75843 6.16282 3.19999 7.99966 3.19999C9.83651 3.19999 11.27 2.75843 12.3277 2.23499C13.1335 1.83622 13.726 1.38738 14.113 1.04328C14.3063 0.871366 14.4477 0.726223 14.538 0.627601C14.5831 0.578322 14.6153 0.540768 14.6349 0.517431C14.6446 0.505766 14.6512 0.497667 14.6545 0.493446L14.6568 0.49064C14.9098 0.164482 15.3794 0.103598 15.7069 0.355481C16.0352 0.608004 16.0967 1.07888 15.8442 1.40722L15.8429 1.40887L15.8413 1.41093L15.8372 1.41622L15.8251 1.43146C15.8153 1.44364 15.8021 1.45983 15.7855 1.47969C15.7523 1.5194 15.7053 1.57385 15.6444 1.64039C15.5227 1.7734 15.3449 1.95515 15.1097 2.16427C14.758 2.47695 14.2764 2.8522 13.6607 3.21711L14.8819 5.60894C15.0703 5.97785 14.9239 6.42961 14.555 6.61796C14.1861 6.80632 13.7343 6.65995 13.546 6.29104L12.317 3.88404C11.3369 4.28417 10.1493 4.59465 8.74966 4.6779V6.94999C8.74966 7.3642 8.41388 7.69999 7.99966 7.69999C7.58545 7.69999 7.24966 7.3642 7.24966 6.94999V4.6779C5.85001 4.59465 4.66248 4.28417 3.68229 3.88404L2.45335 6.29104C2.265 6.65995 1.81324 6.80632 1.44433 6.61796C1.07542 6.42961 0.929051 5.97785 1.11741 5.60894L2.33861 3.21711C1.72289 2.8522 1.24133 2.47695 0.889647 2.16427C0.654451 1.95515 0.476642 1.7734 0.354889 1.64039C0.293984 1.57385 0.247008 1.5194 0.213799 1.47969C0.197191 1.45983 0.184015 1.44364 0.174251 1.43146L0.162157 1.41622L0.158021 1.41093L0.15643 1.40887L0.155753 1.408C-0.0967688 1.07966 -0.0359056 0.608003 0.292432 0.355481Z" fill="#3F434A"/>
</svg>
