<svg width="158" height="28" viewBox="0 0 158 28" fill="none" xmlns="http://www.w3.org/2000/svg">
<path d="M2.43582 8.5764C3.77698 8.57429 4.86255 7.45748 4.8605 6.08193C4.85845 4.70637 3.76956 3.59297 2.4284 3.59507C1.08723 3.59717 0.00166105 4.71398 0.00371005 6.08954C0.00575906 7.46509 1.09465 8.5785 2.43582 8.5764Z" fill="#FA966B"/>
<path fill-rule="evenodd" clip-rule="evenodd" d="M19.8798 5.30888C16.9369 5.31337 13.9199 8.21986 13.9266 12.6433L8.635 12.6514C8.62493 6.06099 13.3041 0.0272611 19.8717 0.0172272C26.4393 0.00719331 31.1369 6.02659 31.1469 12.617L25.8553 12.6251C25.8485 8.20164 22.8227 5.30438 19.8798 5.30888Z" fill="#FA966B"/>
<path fill-rule="evenodd" clip-rule="evenodd" d="M11.3363 18.4521C8.39343 18.4476 5.37643 15.5411 5.38319 11.1177L0.0915415 11.1096C0.0814729 17.7 4.76062 23.7337 11.3282 23.7438C17.8958 23.7538 22.5934 17.7344 22.6035 11.144L17.3118 11.1359C17.3051 15.5594 14.2792 18.4566 11.3363 18.4521Z" fill="#FA966B"/>
<path d="M52.5503 18.5988H49.6104V16.4736L49.7167 14.8797C49.2444 16.0131 48.477 16.9222 47.4144 17.607C46.3754 18.2682 45.2183 18.5988 43.9432 18.5988C42.55 18.5988 41.452 18.2328 40.6491 17.5008C39.8463 16.7687 39.4213 15.8124 39.374 14.6317V4.99749H42.3139V13.2858C42.3611 13.9233 42.5854 14.4783 42.9869 14.9505C43.4119 15.3992 44.0731 15.6471 44.9704 15.6943C45.5843 15.6943 46.1629 15.5881 46.706 15.3756C47.2727 15.163 47.7686 14.8679 48.1936 14.4901C48.6187 14.1122 48.961 13.6636 49.2208 13.1441C49.4805 12.6246 49.6104 12.0579 49.6104 11.4439V4.99749H52.5503V18.5988Z" fill="#1C4651"/>
<path d="M68.1102 11.621C68.1102 10.4404 67.7206 9.47222 66.9413 8.71659C66.1857 7.93735 65.1939 7.54773 63.966 7.54773C62.7382 7.54773 61.7346 7.93735 60.9553 8.71659C60.1997 9.47222 59.8219 10.4404 59.8219 11.621C59.8219 12.7781 60.1997 13.758 60.9553 14.5609C61.7346 15.3401 62.7382 15.7298 63.966 15.7298C65.1939 15.7298 66.1857 15.3401 66.9413 14.5609C67.7206 13.758 68.1102 12.7781 68.1102 11.621ZM71.0855 11.621C71.0855 12.5656 70.8966 13.4629 70.5188 14.313C70.1646 15.163 69.6687 15.9069 69.0311 16.5444C68.3935 17.182 67.6379 17.6897 66.7642 18.0675C65.8905 18.4217 64.9578 18.5988 63.966 18.5988C63.2576 18.5988 62.6201 18.5161 62.0534 18.3508C61.5103 18.1855 61.0498 18.0084 60.672 17.8195C60.2942 17.607 59.999 17.4063 59.7865 17.2174C59.574 17.0285 59.4677 16.8986 59.4677 16.8278C59.5149 16.9458 59.574 17.0757 59.6448 17.2174C59.7156 17.3591 59.7747 17.489 59.8219 17.607V27.135H56.882V4.99749H59.326C59.326 5.28085 59.3378 5.56421 59.3614 5.84757C59.4087 6.10732 59.4441 6.37887 59.4677 6.66223C59.4677 6.59139 59.5858 6.44971 59.8219 6.23719C60.058 6.02467 60.3768 5.81215 60.7782 5.59963C61.1797 5.3635 61.6519 5.15098 62.195 4.96207C62.7382 4.77316 63.3285 4.67871 63.966 4.67871C64.9578 4.67871 65.8905 4.86762 66.7642 5.24543C67.6379 5.59963 68.3935 6.09551 69.0311 6.73307C69.6687 7.37063 70.1646 8.11445 70.5188 8.96453C70.8966 9.791 71.0855 10.6765 71.0855 11.621Z" fill="#1C4651"/>
<path d="M77.1207 11.621C77.1207 12.7781 77.4985 13.758 78.2542 14.5609C79.0334 15.3401 80.037 15.7298 81.2649 15.7298C82.4927 15.7298 83.4845 15.3401 84.2401 14.5609C85.0194 13.758 85.409 12.7781 85.409 11.621C85.409 10.4404 85.0194 9.47222 84.2401 8.71659C83.4845 7.93735 82.4927 7.54773 81.2649 7.54773C80.037 7.54773 79.0334 7.93735 78.2542 8.71659C77.4985 9.47222 77.1207 10.4404 77.1207 11.621ZM74.1454 11.6565C74.1454 10.7355 74.3225 9.85004 74.6767 8.99995C75.0545 8.14987 75.5622 7.40605 76.1998 6.76849C76.8374 6.13093 77.593 5.62324 78.4667 5.24543C79.3404 4.86762 80.2731 4.67871 81.2649 4.67871C81.9024 4.67871 82.4927 4.77316 83.0359 4.96207C83.579 5.15098 84.0512 5.3635 84.4527 5.59963C84.8541 5.81215 85.1729 6.02467 85.409 6.23719C85.6451 6.44971 85.7632 6.59139 85.7632 6.66223C85.7632 6.40249 85.7868 6.13093 85.834 5.84757C85.8813 5.56421 85.9049 5.28085 85.9049 4.99749H88.3489V18.28H85.7632V17.1466V16.8278C85.7632 16.8986 85.6569 17.0285 85.4444 17.2174C85.2319 17.4063 84.9367 17.607 84.5589 17.8195C84.1811 18.0084 83.7088 18.1855 83.1421 18.3508C82.599 18.5161 81.9733 18.5988 81.2649 18.5988C80.2731 18.5988 79.3404 18.4217 78.4667 18.0675C77.593 17.6897 76.8374 17.182 76.1998 16.5444C75.5622 15.9069 75.0545 15.1748 74.6767 14.3484C74.3225 13.4983 74.1454 12.601 74.1454 11.6565Z" fill="#1C4651"/>
<path d="M100.493 6.66223C100.352 6.37887 100.21 6.10732 100.068 5.84757C99.9501 5.56421 99.8203 5.28085 99.6786 4.99749H102.618C103.303 6.48513 104.035 7.98458 104.814 9.49584C105.617 10.9835 106.279 12.4947 106.798 14.0296C107.317 12.4947 107.967 10.9835 108.746 9.49584C109.549 7.98458 110.293 6.48513 110.978 4.99749H113.917C112.713 7.35883 111.521 9.70835 110.34 12.0461C109.183 14.3838 108.002 16.7333 106.798 19.0947C105.995 17.489 105.192 15.9069 104.389 14.3484C103.587 12.7663 102.784 11.1724 101.981 9.56667C101.178 11.1724 100.375 12.7663 99.5723 14.3484C98.7695 15.9069 97.9666 17.489 97.1637 19.0947C95.9595 16.7333 94.767 14.3838 93.5863 12.0461C92.4293 9.70835 91.2486 7.35883 90.0443 4.99749H92.9842C93.669 6.48513 94.401 7.98458 95.1802 9.49584C95.9831 10.9835 96.6443 12.4947 97.1637 14.0296C97.5888 12.7545 98.1083 11.5148 98.7222 10.3105C99.3598 9.0826 99.9501 7.86651 100.493 6.66223Z" fill="#1C4651"/>
<path d="M118.595 11.621C118.595 12.7781 118.973 13.758 119.729 14.5609C120.508 15.3401 121.512 15.7298 122.74 15.7298C123.967 15.7298 124.959 15.3401 125.715 14.5609C126.494 13.758 126.884 12.7781 126.884 11.621C126.884 10.4404 126.494 9.47222 125.715 8.71659C124.959 7.93735 123.967 7.54773 122.74 7.54773C121.512 7.54773 120.508 7.93735 119.729 8.71659C118.973 9.47222 118.595 10.4404 118.595 11.621ZM115.62 11.6565C115.62 10.7355 115.797 9.85004 116.151 8.99995C116.529 8.14987 117.037 7.40605 117.674 6.76849C118.312 6.13093 119.068 5.62324 119.941 5.24543C120.815 4.86762 121.748 4.67871 122.74 4.67871C123.377 4.67871 123.967 4.77316 124.511 4.96207C125.054 5.15098 125.526 5.3635 125.927 5.59963C126.329 5.81215 126.648 6.02467 126.884 6.23719C127.12 6.44971 127.238 6.59139 127.238 6.66223C127.238 6.40249 127.261 6.13093 127.309 5.84757C127.356 5.56421 127.38 5.28085 127.38 4.99749H129.824V18.28H127.238V17.1466V16.8278C127.238 16.8986 127.132 17.0285 126.919 17.2174C126.707 17.4063 126.411 17.607 126.034 17.8195C125.656 18.0084 125.183 18.1855 124.617 18.3508C124.074 18.5161 123.448 18.5988 122.74 18.5988C121.748 18.5988 120.815 18.4217 119.941 18.0675C119.068 17.6897 118.312 17.182 117.674 16.5444C117.037 15.9069 116.529 15.1748 116.151 14.3484C115.797 13.4983 115.62 12.601 115.62 11.6565Z" fill="#1C4651"/>
<path d="M137.324 27.135H134.384C135.14 25.6474 135.884 24.1715 136.616 22.7075C137.348 21.2435 138.092 19.7676 138.847 18.28L132.153 4.99749H135.093C135.966 6.72127 136.899 8.48046 137.891 10.2751C138.906 12.0461 139.721 13.8407 140.335 15.6589C140.642 14.7616 140.996 13.8643 141.398 12.967C141.823 12.0461 142.271 11.1488 142.744 10.2751C143.216 9.37777 143.688 8.49227 144.16 7.61857C144.656 6.72127 145.117 5.84757 145.542 4.99749H148.482C146.616 8.70479 144.751 12.4003 142.885 16.084C141.043 19.744 139.19 23.4277 137.324 27.135Z" fill="#1C4651"/>
<path d="M152.825 0.35734V0.861012H151.333V4.82026H150.804V0.861012H149.299V0.35734H152.825Z" fill="#1C4651"/>
<path d="M153.333 0.15332C153.724 0.659118 154.113 1.16492 154.5 1.67071C154.887 2.17226 155.276 2.67593 155.667 3.18173C156.058 2.67593 156.447 2.17226 156.834 1.67071C157.22 1.16492 157.609 0.659118 158 0.15332V4.82026H157.471V1.82373C157.475 1.78973 157.478 1.75572 157.478 1.72172C157.482 1.68772 157.486 1.65371 157.49 1.61971C157.21 2.03625 156.912 2.44216 156.598 2.83745C156.283 3.22849 155.973 3.62377 155.667 4.02331C155.382 3.64928 155.097 3.27737 154.813 2.90758C154.528 2.5378 154.243 2.16589 153.958 1.79185L153.843 1.61971C153.848 1.65371 153.85 1.68772 153.85 1.72172C153.854 1.75572 153.858 1.78973 153.863 1.82373V4.82026H153.333V0.15332Z" fill="#1C4651"/>
</svg>
